<svg width="115" height="26" viewBox="0 0 115 26" fill="none" xmlns="http://www.w3.org/2000/svg">
<g id="Clip path group">
<mask id="mask0_3045_8498" style="mask-type:luminance" maskUnits="userSpaceOnUse" x="0" y="0" width="115" height="26">
<g id="clip0_22573_116504">
<path id="Vector" d="M114.583 0.5H0V25.5H114.583V0.5Z" fill="white"/>
</g>
</mask>
<g mask="url(#mask0_3045_8498)">
<g id="Group">
<path id="Vector_2" d="M0.96756 12.4898C0.967907 11.1662 1.4924 9.8905 2.43822 8.91276C2.89174 8.45503 3.44033 8.09031 4.04983 7.8413C4.65933 7.59229 5.31667 7.46431 5.98089 7.46536C7.44262 7.48923 8.88201 8.19677 10.0579 9.18792C10.6639 9.73058 11.2219 10.3189 11.7266 10.9469C11.7636 10.9957 11.8105 11.0371 11.8645 11.0688C11.9185 11.1005 11.9786 11.1218 12.0414 11.1316C12.1041 11.1414 12.1683 11.1394 12.2303 11.1258C12.2922 11.1121 12.3507 11.0871 12.4024 11.0522C12.4541 11.0173 12.498 10.9731 12.5316 10.9221C12.5651 10.8712 12.5878 10.8146 12.5981 10.7553C12.6085 10.6962 12.6064 10.6357 12.592 10.5772C12.5776 10.5188 12.5511 10.4636 12.514 10.4149C12.5054 10.4026 12.496 10.3909 12.4857 10.3798C11.9466 9.70972 11.3492 9.08331 10.6995 8.50706C9.40449 7.41342 7.77159 6.58233 5.99578 6.55285C5.19645 6.54793 4.40473 6.69948 3.67068 6.99791C2.93663 7.29634 2.27621 7.73516 1.73117 8.28662C0.613913 9.4323 -0.00424962 10.9332 2.19913e-05 12.4898C0.0182443 12.9696 0.0789892 13.4472 0.181621 13.9175C0.248605 14.3794 1.2087 14.2082 1.1179 13.6775C1.03072 13.2865 0.980414 12.8891 0.96756 12.4898Z" fill="#111111"/>
<path id="Vector_3" d="M25.5692 10.7886C25.9209 11.529 26.1186 12.3264 26.1512 13.1372C26.1512 14.4613 25.6267 15.7376 24.6805 16.7157C24.227 17.1733 23.6784 17.5378 23.0689 17.7866C22.4594 18.0354 21.8021 18.163 21.1379 18.1617C19.6761 18.1392 18.2368 17.4316 17.0624 16.4391C16.456 15.897 15.8974 15.3092 15.3922 14.6815C15.3174 14.583 15.2042 14.5166 15.0774 14.4969C14.9507 14.4771 14.8208 14.5056 14.7164 14.5762C14.612 14.6468 14.5416 14.7536 14.5206 14.8731C14.4997 14.9926 14.53 15.1151 14.6048 15.2136C14.6135 15.2253 14.6229 15.2365 14.633 15.2472C15.1721 15.9177 15.7697 16.5447 16.4193 17.1214C17.7158 18.2136 19.3487 19.0475 21.1259 19.0756C21.925 19.0802 22.7165 18.9286 23.4502 18.6301C24.184 18.3317 24.8442 17.893 25.3891 17.3418C26.5085 16.1966 27.1279 14.6948 27.1233 13.1372C27.1233 12.118 26.6767 10.7689 26.4579 10.3787C26.2256 9.88029 25.2522 10.1976 25.5692 10.7886Z" fill="#111111"/>
<path id="Vector_4" d="M18.4768 11.458C18.7184 10.7193 18.2792 9.93586 17.496 9.70804C16.7128 9.48023 15.8821 9.89437 15.6405 10.633C15.399 11.3717 15.838 12.1552 16.6213 12.383C17.4045 12.6108 18.2353 12.1966 18.4768 11.458Z" fill="#111111"/>
<path id="Vector_5" d="M20.9673 8.68301C21.1854 8.01623 20.789 7.30897 20.082 7.10333C19.375 6.89768 18.625 7.27152 18.407 7.93833C18.189 8.60512 18.5853 9.31239 19.2924 9.51801C19.9994 9.72372 20.7493 9.34989 20.9673 8.68301Z" fill="#111111"/>
<path id="Vector_6" d="M24.3887 7.89723C24.6009 7.2482 24.2151 6.55979 23.5269 6.35963C22.8387 6.15947 22.1089 6.52335 21.8966 7.17237C21.6844 7.8214 22.0702 8.50984 22.7583 8.71C23.4465 8.91015 24.1764 8.54625 24.3887 7.89723Z" fill="#111111"/>
<path id="Vector_7" d="M25.8651 9.25886C25.977 8.91651 25.7735 8.55346 25.4105 8.44792C25.0476 8.34237 24.6627 8.53425 24.5507 8.87651C24.4388 9.21886 24.6422 9.5819 25.0052 9.68745C25.3682 9.793 25.7531 9.60112 25.8651 9.25886Z" fill="#111111"/>
<path id="Vector_8" d="M11.7678 15.8043C11.9977 15.1012 11.5797 14.3554 10.8342 14.1386C10.0887 13.9218 9.29796 14.316 9.06798 15.0191C8.83809 15.7222 9.25608 16.4679 10.0016 16.6848C10.7471 16.9016 11.5378 16.5075 11.7678 15.8043Z" fill="#111111"/>
<path id="Vector_9" d="M9.09493 18.5442C9.33063 17.8234 8.90215 17.0588 8.13775 16.8364C7.37339 16.6141 6.56264 17.0182 6.32692 17.7392C6.09118 18.46 6.51972 19.2247 7.28409 19.447C8.04845 19.6693 8.85922 19.2652 9.09493 18.5442Z" fill="#111111"/>
<path id="Vector_10" d="M5.54981 19.136C5.75598 18.5054 5.38117 17.8367 4.71265 17.6422C4.04412 17.4478 3.33504 17.8013 3.12886 18.4319C2.92268 19.0623 3.29749 19.7311 3.96601 19.9255C4.63454 20.12 5.34363 19.7665 5.54981 19.136Z" fill="#111111"/>
<path id="Vector_11" d="M2.80854 17.3115C2.93816 16.9151 2.70252 16.4947 2.28224 16.3724C1.86196 16.2502 1.41618 16.4724 1.28656 16.8688C1.15694 17.2652 1.39258 17.6856 1.81286 17.8078C2.23314 17.9301 2.67892 17.7079 2.80854 17.3115Z" fill="#111111"/>
<path id="Vector_12" d="M1.53511 15.3966C1.62596 15.1187 1.4608 14.824 1.16621 14.7384C0.871619 14.6527 0.559152 14.8084 0.468299 15.0863C0.377445 15.3641 0.542608 15.6588 0.837196 15.7445C1.13179 15.8302 1.44425 15.6744 1.53511 15.3966Z" fill="#111111"/>
<path id="Vector_13" d="M14.4048 13.7252C14.8295 13.1863 14.7105 12.4247 14.1392 12.0243C13.5677 11.6237 12.7603 11.7359 12.3356 12.2748C11.9109 12.8137 12.0299 13.5753 12.6012 13.9758C13.1727 14.3763 13.9801 14.2641 14.4048 13.7252Z" fill="#111111"/>
<path id="Vector_14" d="M13.3701 25.5024C9.92352 25.5093 6.61091 24.2435 4.14134 21.9759C4.08825 21.9273 4.05779 21.8608 4.05667 21.7911C4.05556 21.7213 4.08387 21.654 4.13539 21.6039C4.18691 21.5538 4.25741 21.5251 4.33139 21.524C4.40536 21.523 4.47675 21.5497 4.52985 21.5983C5.80244 22.7624 7.31941 23.6623 8.98313 24.24C10.6468 24.8177 12.4203 25.0604 14.1895 24.9525C15.9587 24.8446 17.6842 24.3884 19.2551 23.6134C20.8261 22.8384 22.2075 21.7618 23.3105 20.4527C23.3333 20.4258 23.3615 20.4032 23.3934 20.3865C23.4255 20.3697 23.4607 20.3591 23.497 20.3552C23.5334 20.3513 23.5702 20.3542 23.6053 20.3636C23.6405 20.3732 23.6734 20.3891 23.702 20.4106C23.7307 20.4321 23.7545 20.4586 23.7722 20.4889C23.79 20.519 23.8013 20.5522 23.8054 20.5865C23.8096 20.6208 23.8065 20.6555 23.7964 20.6886C23.7863 20.7218 23.7694 20.7528 23.7466 20.7798C22.5084 22.2559 20.9313 23.4479 19.1339 24.2659C17.3366 25.084 15.3658 25.5067 13.3701 25.5024Z" fill="#111111"/>
<path id="Vector_15" d="M3.47141 5.35654C3.40544 5.35708 3.34149 5.33515 3.2913 5.29478C3.2633 5.27251 3.24023 5.24523 3.22341 5.21454C3.2066 5.18383 3.19639 5.15031 3.19334 5.11587C3.1903 5.08144 3.19449 5.04679 3.20568 5.01389C3.21687 4.98098 3.23485 4.95049 3.25855 4.92415C4.43586 3.61071 5.88802 2.54065 7.52409 1.78097C9.16013 1.0213 10.9449 0.588376 12.7666 0.509306C14.5882 0.430235 16.4076 0.706722 18.1108 1.32146C19.8139 1.93619 21.3641 2.87594 22.6644 4.08183C22.7171 4.1308 22.7471 4.1975 22.7476 4.26726C22.7481 4.33704 22.7193 4.40415 22.6674 4.45386C22.6154 4.50357 22.5448 4.53179 22.4708 4.53231C22.3968 4.53284 22.3256 4.50563 22.2729 4.45667C21.0268 3.3018 19.5414 2.4019 17.9096 1.81325C16.2779 1.2246 14.5349 0.959884 12.7897 1.03565C11.0445 1.11142 9.33459 1.52604 7.76712 2.25359C6.1996 2.98113 4.80814 4.00594 3.67981 5.26389C3.65416 5.29254 3.62227 5.31565 3.58631 5.33163C3.55035 5.34762 3.51117 5.35612 3.47141 5.35654Z" fill="#111111"/>
<path id="Vector_16" d="M72.436 22.177L64.7567 4.5459H63.417L55.6767 22.1728C55.6365 22.2233 55.7005 22.2753 55.7526 22.2753H57.0223C57.0597 22.2724 57.0959 22.2617 57.1284 22.244C57.1608 22.2262 57.1886 22.2019 57.2099 22.1728L59.2149 17.5681H68.8903L70.9013 22.177C70.9224 22.2063 70.9502 22.2307 70.9827 22.2484C71.0151 22.2662 71.0514 22.2768 71.0889 22.2795H72.3586C72.4136 22.2795 72.4776 22.2346 72.436 22.177ZM59.7835 16.2808L64.0437 6.42427L68.3469 16.2808H59.7835Z" fill="#111111"/>
<path id="Vector_17" d="M89.7087 19.925L86.0251 14.4317H80.9447L80.998 22.1529C80.9996 22.17 80.9964 22.1871 80.9899 22.203C80.9835 22.219 80.9738 22.2335 80.9609 22.2456C80.948 22.2576 80.9326 22.267 80.9157 22.2731C80.8987 22.2791 80.881 22.2818 80.8624 22.2807H79.7255C79.7075 22.2818 79.6893 22.2791 79.6724 22.2731C79.6555 22.267 79.6402 22.2576 79.6273 22.2456C79.6145 22.2335 79.6046 22.219 79.5981 22.203C79.5918 22.1871 79.589 22.17 79.5901 22.1529V4.51762C79.589 4.50058 79.5918 4.48351 79.5981 4.46755C79.6046 4.45158 79.6145 4.43708 79.6273 4.42501C79.6402 4.41294 79.6555 4.40356 79.6724 4.39751C79.6893 4.39144 79.7075 4.38884 79.7255 4.38987H85.6798C89.7168 4.38987 92.2901 6.07451 92.2901 9.34691C92.2901 12.3877 90.4608 13.9726 87.5091 14.3559L92.7363 22.174C92.792 22.2246 92.7363 22.2765 92.6831 22.2765H91.3282C91.2451 22.2688 91.1677 22.2323 91.1112 22.174L89.7087 19.925ZM80.9447 12.9507V13.3339H85.9565C89.018 13.3339 90.9627 12.1841 90.9627 9.37215C90.9627 6.84522 89.0454 5.48909 85.9565 5.48909H80.998L80.9447 12.9507Z" fill="#111111"/>
<path id="Vector_18" d="M50.9087 15.8774C50.9122 15.8606 50.9118 15.8433 50.9075 15.8267C50.9031 15.8101 50.895 15.7945 50.8836 15.7812C50.8724 15.7678 50.8581 15.757 50.8419 15.7493C50.8256 15.7417 50.8078 15.7375 50.7897 15.737L49.6852 15.6288C49.6679 15.6254 49.6499 15.6256 49.6326 15.6292C49.6153 15.6328 49.599 15.64 49.5849 15.6501C49.5708 15.6602 49.5592 15.6731 49.5508 15.6878C49.5424 15.7026 49.5375 15.7188 49.5364 15.7356C49.5209 15.7885 49.5095 15.8425 49.5021 15.897C48.7906 19.6018 44.9457 21.2752 41.5088 21.0099C36.3108 20.6098 34.4666 16.686 34.4666 13.4473C34.4666 8.04802 37.9467 5.82149 41.5236 5.5365C44.6496 5.28662 48.6254 6.58098 49.2015 9.46736C49.2104 9.50946 49.2208 9.54173 49.2208 9.54173C49.2222 9.55837 49.2273 9.57454 49.2357 9.58923C49.2441 9.60392 49.2557 9.61681 49.2697 9.62696C49.2838 9.6372 49.2999 9.64446 49.3172 9.64837C49.3344 9.65236 49.3523 9.65282 49.3696 9.64986L50.4935 9.54032C50.5245 9.5397 50.5541 9.52806 50.5765 9.50775C50.5987 9.48751 50.6122 9.46001 50.6141 9.43079L50.5962 9.32415C49.9888 6.0447 45.7466 3.96558 41.4016 4.30953C37.4138 4.62821 33.0972 7.21132 33.0972 13.4459C33.0972 19.4614 37.5627 21.9392 41.3927 22.2327C41.7083 22.257 42.0168 22.2692 42.3185 22.2692C47.0967 22.2692 50.2881 19.3758 50.8761 16.0472L50.9087 15.8774Z" fill="#111111"/>
<path id="Vector_19" d="M100.922 22.2777C100.904 22.2785 100.887 22.2757 100.87 22.2696C100.853 22.2635 100.837 22.2541 100.824 22.2421C100.812 22.23 100.802 22.2157 100.795 22.1997C100.789 22.1839 100.786 22.1669 100.787 22.15L100.842 13.0782L100.787 4.51461C100.786 4.49761 100.789 4.48064 100.795 4.46479C100.802 4.44893 100.812 4.43452 100.824 4.42249C100.837 4.41046 100.853 4.40108 100.87 4.39494C100.887 4.38881 100.904 4.38605 100.922 4.38686H111.03C111.047 4.38605 111.066 4.38881 111.082 4.39494C111.099 4.40108 111.114 4.41046 111.127 4.42249C111.14 4.43452 111.15 4.44893 111.156 4.46479C111.163 4.48064 111.166 4.49761 111.165 4.51461V5.35693C111.166 5.37396 111.164 5.39104 111.157 5.407C111.151 5.42296 111.14 5.43746 111.128 5.44953C111.115 5.46161 111.1 5.47098 111.083 5.47704C111.066 5.4831 111.047 5.4857 111.03 5.48468H102.197L102.141 12.3832H111.083C111.101 12.3822 111.119 12.3848 111.136 12.3909C111.153 12.397 111.168 12.4064 111.181 12.4184C111.194 12.4305 111.204 12.445 111.21 12.461C111.217 12.4769 111.22 12.4939 111.218 12.511V13.3533C111.219 13.3703 111.217 13.3873 111.21 13.4032C111.203 13.419 111.193 13.4334 111.18 13.4454C111.168 13.4575 111.153 13.4668 111.136 13.473C111.119 13.4791 111.101 13.4819 111.083 13.4811H102.141L102.197 21.1714H111.241C111.259 21.1704 111.277 21.173 111.294 21.1791C111.311 21.1851 111.327 21.1945 111.339 21.2066C111.352 21.2186 111.362 21.2332 111.368 21.2491C111.375 21.2651 111.377 21.2821 111.377 21.2992V22.1415C111.377 22.1586 111.375 22.1757 111.368 22.1916C111.362 22.2075 111.352 22.2221 111.339 22.2341C111.327 22.2462 111.311 22.2556 111.294 22.2616C111.277 22.2677 111.259 22.2703 111.241 22.2693L100.922 22.2777Z" fill="#111111"/>
<path id="Vector_20" d="M111.985 4.57612V4.42871H113.08V4.57612H112.616V5.72027H112.432V4.57612H111.985ZM114.398 4.42871H114.59V5.72027H114.424V4.75301C114.417 4.77648 114.409 4.79947 114.398 4.8218L113.986 5.72027H113.851L113.444 4.8218L113.413 4.75301C113.413 4.85548 113.413 4.95376 113.413 5.03378V5.72588H113.247V4.43433H113.439L113.834 5.30894C113.861 5.37773 113.892 5.44932 113.913 5.50969L113.996 5.29349L114.398 4.42871Z" fill="#111111"/>
</g>
</g>
</g>
</svg>
